PathFileType	4	(X/Y/Z)	/Users/itak/Documents/Research/Walk-IL/dataset/trc/00334_00011.trc
DataRate	CameraRate	NumFrames	NumMarkers	Units	OrigDataRate	OrigDataStartFrame	OrigNumFrames
100.000000	100.000000	4	54	mm	100.000000	291	582
Frame#	Time	RPSI			LPSI			L3			STRN			T10			C7			CLAV			RBAK			LBAK			LSHO			LUPA			LAEL			LAOL			LWTS			LWPS			LFRA			LHPS			LHTS			RSHO			RUPA			RAEL			RAOL			RWTS			RWPS			RFRA			RIFD			RHTS			RHPS			RBHD			LFHD			RFHD			LBHD			LHIP			RHIP			RASI			LASI			LKNE			LTHI			LANK			LTIP			LTOE			LMT1			LMT5			LHEE			RKNE			RTHI			RANK			RTIP			RTOE			RMT1			RMT5			RHEE			LIFD			*53			
		X1	Y1	Z1	X2	Y2	Z2	X3	Y3	Z3	X4	Y4	Z4	X5	Y5	Z5	X6	Y6	Z6	X7	Y7	Z7	X8	Y8	Z8	X9	Y9	Z9	X10	Y10	Z10	X11	Y11	Z11	X12	Y12	Z12	X13	Y13	Z13	X14	Y14	Z14	X15	Y15	Z15	X16	Y16	Z16	X17	Y17	Z17	X18	Y18	Z18	X19	Y19	Z19	X20	Y20	Z20	X21	Y21	Z21	X22	Y22	Z22	X23	Y23	Z23	X24	Y24	Z24	X25	Y25	Z25	X26	Y26	Z26	X27	Y27	Z27	X28	Y28	Z28	X29	Y29	Z29	X30	Y30	Z30	X31	Y31	Z31	X32	Y32	Z32	X33	Y33	Z33	X34	Y34	Z34	X35	Y35	Z35	X36	Y36	Z36	X37	Y37	Z37	X38	Y38	Z38	X39	Y39	Z39	X40	Y40	Z40	X41	Y41	Z41	X42	Y42	Z42	X43	Y43	Z43	X44	Y44	Z44	X45	Y45	Z45	X46	Y46	Z46	X47	Y47	Z47	X48	Y48	Z48	X49	Y49	Z49	X50	Y50	Z50	X51	Y51	Z51	X52	Y52	Z52	X53	Y53	Z53	X54	Y54	Z54	

292	2.91	49.16096878051758	944.6801147460938	165.2026214599609	34.54426193237305	942.0857543945312	35.46482467651367	38.84375381469727	1013.949035644531	107.3987503051758	281.6105346679688	1178.782592773438	54.83007431030273	45.04264450073242	1132.541625976562	105.3442306518555	97.61231994628906	1377.219360351562	78.12797546386719	245.5142822265625	1305.716186523438	54.23897933959961	54.67354965209961	1244.098876953125	160.197021484375	65.30765533447266	1338.34814453125	-18.06831169128418	138.6537017822266	1347.079345703125	-90.93229675292969	98.63787841796875	1228.364624023438	-150.8099822998047	99.29246520996094	1023.432250976562	-163.5570373535156	51.04652404785156	1013.933044433594	-94.98257446289062	204.5103607177734	782.7698974609375	-138.3847503662109	150.6033477783203	768.2499389648438	-179.9592895507812	110.3370056152344	917.5546264648438	-172.104248046875	150.5977478027344	698.3872680664062	-170.3834686279297	213.0220642089844	703.360595703125	-153.9820098876953	187.8822021484375	1361.89990234375	225.7428741455078	190.2873229980469	1299.744384765625	294.0233459472656	210.8311920166016	1035.622314453125	347.2649230957031	145.7420959472656	1022.174194335938	279.49560546875	294.0155029296875	799.17138671875	289.1278076171875	290.1601867675781	795.607666015625	364.9086303710938	238.6253814697266	969.118896484375	352.464111328125	304.3515014648438	626.8384399414062	322.1759643554688	320.4520568847656	696.4873046875	306.4292602539062	299.2713317871094	710.153076171875	370.1785583496094	154.3263092041016	1573.705810546875	140.0530700683594	308.5491333007812	1583.986450195312	-1.084244608879089	311.3864135742188	1587.398193359375	100.2366180419922	122.6092376708984	1563.629516601562	-2.13136625289917	117.2355880737305	888.794921875	-74.94346618652344	136.8577423095703	889.8739624023438	268.0758666992188	240.0151062011719	914.3057861328125	217.5942535400391	238.540771484375	915.6317138671875	-21.09549140930176	336.1369934082031	467.1467590332031	-58.77663421630859	273.1099548339844	593.0833129882812	-73.95842742919922	367.8694152832031	36.5936393737793	-19.71563911437988	350.6939697265625	246.8880310058594	-52.75887298583984	562.6797485351562	52.72340774536133	65.73929595947266	490.6908874511719	50.30754852294922	96.23612976074219	496.2113647460938	39.91371536254883	-18.99163246154785	326.1198425292969	45.81528854370117	43.38313293457031	140.459228515625	426.6246337890625	221.5217590332031	201.6292266845703	677.9270629882812	253.5254211425781	-104.5321578979492	80.32981872558594	193.8475494384766	94.72998809814453	313.0975341796875	209.8887329101562	70.82271575927734	41.28960037231445	128.6866912841797	16.72363090515137	42.68742752075195	88.51045227050781	-12.23590469360352	41.39234161376953	204.4276885986328	-155.8664398193359	103.0932922363281	151.6004333496094	209.9879302978516	620.0852661132812	-127.4650573730469	nan	nan	nan	
293	2.92	38.13168716430664	943.9772338867188	166.0364837646484	23.51605224609375	941.1328735351562	36.40423965454102	27.66525650024414	1013.437255859375	108.1176681518555	272.0556945800781	1177.376831054688	56.54447937011719	35.0329475402832	1132.104248046875	106.0203399658203	88.89659118652344	1376.555053710938	79.18528747558594	236.4982757568359	1304.490234375	55.77752304077148	45.33235931396484	1243.545654296875	161.1002349853516	56.64742660522461	1337.707763671875	-17.13500022888184	130.2263793945312	1345.88330078125	-89.86272430419922	89.98872375488281	1227.131591796875	-149.5504302978516	89.70210266113281	1022.159912109375	-162.2253265380859	41.51362609863281	1012.886962890625	-93.71962738037109	193.9364318847656	780.9463500976562	-137.7670288085938	139.3842926025391	766.42041015625	-178.5123291015625	100.1742858886719	916.1646728515625	-170.7707214355469	138.9179382324219	696.60595703125	-168.2345275878906	201.5264739990234	701.134521484375	-152.5864715576172	178.5803833007812	1361.068237304688	227.0603637695312	180.61328125	1298.972534179688	295.3500061035156	203.6848449707031	1035.249389648438	349.9541625976562	140.2954711914062	1020.376220703125	280.7825927734375	295.6780090332031	802.0135498046875	292.6864929199219	287.8054504394531	796.5573120117188	368.0245666503906	232.687744140625	968.9821166992188	355.8788757324219	311.7627868652344	629.9159545898438	322.781982421875	325.6978759765625	700.3634033203125	309.6197204589844	300.0674743652344	711.629150390625	372.0026550292969	146.0830383300781	1572.931640625	141.1283721923828	300.165771484375	1582.856689453125	-0.1734974831342697	303.097900390625	1586.312133789062	101.1412124633789	114.1670761108398	1562.784790039062	-1.017529487609863	106.3808212280273	887.7080688476562	-73.89923858642578	126.1475143432617	889.4874267578125	268.8295593261719	229.2482604980469	913.9429931640625	218.2933502197266	227.4202117919922	914.6773071289062	-20.37431144714355	327.3834533691406	468.0016174316406	-59.8793830871582	263.1651306152344	593.0534057617188	-74.59010314941406	367.1677856445312	36.95207214355469	-21.53083801269531	345.663818359375	247.9542541503906	-54.73108291625977	561.8473510742188	56.6610107421875	62.76023864746094	489.6478271484375	54.58644485473633	93.8834228515625	495.6183776855469	39.5932502746582	-20.86142158508301	325.5100708007812	47.10486221313477	41.49235916137695	132.9879302978516	425.4642028808594	221.6018371582031	191.2007751464844	677.8512573242188	255.0336761474609	-107.0654678344727	76.54045867919922	193.1886138916016	88.89086151123047	311.3384399414062	209.2265167236328	70.30520629882812	41.49319458007812	128.3594207763672	15.58730220794678	41.96944046020508	88.07110595703125	-13.39089775085449	41.02036666870117	203.7689514160156	-159.221923828125	97.57004547119141	150.8998260498047	197.7577819824219	617.915771484375	-124.9582748413086	nan	nan	nan	
294	2.93	27.39077186584473	943.4881591796875	166.9803619384766	12.5763692855835	940.3538208007812	37.47016143798828	16.7556324005127	1013.060791015625	108.9559020996094	262.6112976074219	1176.196899414062	58.15898513793945	25.11202430725098	1131.80419921875	106.7105102539062	80.17787170410156	1376.030517578125	80.16152191162109	227.5155639648438	1303.460693359375	57.24190139770508	36.04330062866211	1243.140991210938	161.9619903564453	48.01586532592773	1337.212036132812	-16.26463317871094	121.8251724243164	1344.88623046875	-88.85195159912109	81.37067413330078	1226.094482421875	-148.3619232177734	80.17591094970703	1021.092102050781	-160.9260711669922	32.10983657836914	1012.036193847656	-92.45069885253906	183.5597381591797	779.39697265625	-137.3148651123047	128.3362731933594	764.8126220703125	-177.0950927734375	90.09135437011719	914.97705078125	-169.4890747070312	127.5437774658203	695.0597534179688	-166.0952453613281	190.3112487792969	699.212890625	-151.3535308837891	169.27587890625	1360.433471679688	228.3056640625	170.9421539306641	1298.39404296875	296.6056823730469	196.2908935546875	1035.065673828125	352.4675903320312	134.6665496826172	1018.864624023438	281.8335876464844	296.9558715820312	805.3607788085938	296.1504516601562	285.2251586914062	797.7499389648438	370.855712890625	226.3932952880859	969.0484619140625	359.2406005859375	318.9702758789062	633.7448120117188	323.2022399902344	330.5899353027344	704.9246215820312	312.6781921386719	300.6970520019531	713.4702758789062	373.50830078125	137.8305511474609	1572.2890625	142.1761474609375	291.8091735839844	1581.879150390625	0.7600179314613342	294.8180236816406	1585.3701171875	102.0615158081055	105.7611389160156	1562.093505859375	0.06573998928070068	95.45054626464844	886.7703857421875	-72.82161712646484	115.8455657958984	889.3364868164062	269.6026306152344	218.7510070800781	913.802978515625	218.7503967285156	216.307861328125	913.8919067382812	-19.86249732971191	318.4904479980469	468.9497680664062	-61.1367073059082	252.9834899902344	593.0721435546875	-75.37464141845703	365.3923034667969	37.38092041015625	-23.16748428344727	340.2130126953125	249.0668792724609	-56.74686813354492	560.122802734375	61.30932235717773	59.17943954467773	487.8202819824219	59.3488883972168	91.26828002929688	493.9229431152344	39.43163681030273	-22.83137512207031	323.9836120605469	48.49535369873047	39.8848991394043	125.9635620117188	424.4723205566406	221.6179656982422	181.2453308105469	677.9284057617188	256.3890380859375	-109.2349166870117	73.05057525634766	192.4185943603516	83.46607208251953	309.7623291015625	208.4921264648438	69.86647796630859	41.62726974487305	127.9964599609375	14.64581298828125	41.18317413330078	87.60383605957031	-14.43029975891113	40.7070426940918	203.0818176269531	-162.0236358642578	92.44596862792969	150.0532531738281	186.1965942382812	616.2247314453125	-122.7289047241211	nan	nan	nan	
295	2.94	16.95073699951172	943.1802978515625	168.0330505371094	1.75035548210144	939.7417602539062	38.644287109375	6.152152538299561	1012.812072753906	109.9029769897461	253.2835998535156	1175.27001953125	59.65333938598633	15.29981994628906	1131.633911132812	107.4123229980469	71.44364166259766	1375.6533203125	81.04482269287109	218.5713653564453	1302.649047851562	58.60986328125	26.80452728271484	1242.883178710938	162.7794952392578	39.40861511230469	1336.874267578125	-15.46247673034668	113.4410171508789	1344.113159179688	-87.90934753417969	72.78334045410156	1225.278442382812	-147.2566528320312	70.71723937988281	1020.252197265625	-159.6554718017578	22.86136817932129	1011.400512695312	-91.15230560302734	173.4068450927734	778.1517944335938	-137.0295257568359	117.4840469360352	763.467529296875	-175.7116851806641	80.09513854980469	914.0179443359375	-168.2525787353516	116.5160140991211	693.785400390625	-164.0022430419922	179.4497833251953	697.6539306640625	-150.3344879150391	159.9803009033203	1360.000244140625	229.4623413085938	161.3198089599609	1298.016967773438	297.7771606445312	188.7454986572266	1035.07470703125	354.7975769042969	128.8324737548828	1017.654235839844	282.7412109375	297.7555541992188	809.1565551757812	299.45751953125	282.4800109863281	799.2133178710938	373.3655700683594	219.8356628417969	969.3326416015625	362.4777221679688	325.8000183105469	638.2819213867188	323.5008850097656	334.9892578125	710.1082763671875	315.5514831542969	301.1671752929688	715.696533203125	374.7117309570312	129.5765838623047	1571.791381835938	143.1901550292969	283.4808349609375	1581.0673828125	1.70172643661499	286.5505676269531	1584.5859375	102.9842681884766	97.39446258544922	1561.5712890625	1.109866976737976	84.48995971679688	885.9963989257812	-71.72797393798828	105.9726028442383	889.3737182617188	270.4005126953125	208.5422210693359	913.8519287109375	218.9795989990234	205.2459564208984	913.2716064453125	-19.53962707519531	309.6077575683594	470.0084228515625	-62.52523422241211	242.7273101806641	593.188720703125	-76.29984283447266	362.1781616210938	37.8338508605957	-24.4922924041748	334.2403869628906	250.1996459960938	-58.69890594482422	557.139892578125	66.44478607177734	55.13486862182617	484.9038696289062	64.36593627929688	88.50571441650391	490.7380676269531	39.48324203491211	-24.8212947845459	321.1978454589844	49.89550399780273	38.70918655395508	119.3075332641602	423.6797790527344	221.5526580810547	171.8429565429688	678.12353515625	257.4716491699219	-111.0970840454102	69.88469696044922	191.4908752441406	78.38832855224609	308.419677734375	207.6988372802734	69.50673675537109	41.68949127197266	127.598762512207	13.89457702636719	40.33462142944336	87.09908294677734	-15.36237049102783	40.48065948486328	202.3515014648438	-164.3302154541016	87.74546051025391	149.0050506591797	175.3897247314453	615.0498657226562	-120.8792953491211	nan	nan	nan	
